<?xml version="1.0" standalone="no"?>
<!DOCTYPE svg PUBLIC "-//W3C//DTD SVG 20010904//EN"
 "http://www.w3.org/TR/2001/REC-SVG-20010904/DTD/svg10.dtd">
<svg version="1.0" xmlns="http://www.w3.org/2000/svg"
 width="240.000000pt" height="240.000000pt" viewBox="0 0 240.000000 240.000000"
 preserveAspectRatio="xMidYMid meet">

<g transform="translate(0.000000,240.000000) scale(0.100000,-0.100000)"
fill="#000000" stroke="none">
<path d="M705 2389 c-452 -33 -611 -149 -669 -485 -21 -122 -36 -337 -36 -531
l0 -163 72 5 c40 3 152 10 248 15 211 13 290 24 393 57 219 69 360 222 416
453 26 106 38 233 47 473 l7 187 -184 -1 c-101 -1 -233 -5 -294 -10z"/>
<path d="M1220 2314 c0 -112 17 -364 31 -468 38 -285 184 -478 420 -556 96
-31 206 -48 400 -59 95 -6 209 -13 252 -16 l77 -4 0 157 c0 411 -42 669 -129
795 -116 169 -296 221 -798 234 l-253 6 0 -89z"/>
<path d="M3 937 c12 -552 77 -738 292 -842 130 -63 332 -90 697 -94 l198 -2
-5 73 c-3 40 -10 152 -15 248 -13 211 -24 290 -57 393 -62 197 -195 334 -384
397 -96 31 -206 48 -400 59 -95 6 -210 13 -253 16 l-79 5 6 -253z"/>
<path d="M2305 1183 c-461 -27 -496 -31 -615 -69 -108 -34 -185 -79 -255 -148
-135 -136 -183 -285 -204 -637 -6 -95 -13 -210 -16 -253 l-5 -79 253 6 c354 8
514 32 642 92 220 106 289 314 294 903 l2 192 -23 -2 c-13 -1 -45 -3 -73 -5z"/>
</g>
</svg>
