<?xml version="1.0" standalone="no"?>
<!DOCTYPE svg PUBLIC "-//W3C//DTD SVG 20010904//EN"
 "http://www.w3.org/TR/2001/REC-SVG-20010904/DTD/svg10.dtd">
<svg version="1.0" xmlns="http://www.w3.org/2000/svg"
 width="530.000000pt" height="528.000000pt" viewBox="0 0 530.000000 528.000000"
 preserveAspectRatio="xMidYMid meet">

<g transform="translate(0.000000,528.000000) scale(0.100000,-0.100000)"
fill="#000000" stroke="none">
<path d="M900 5236 c-420 -112 -732 -423 -848 -845 l-27 -96 -3 -1615 c-2
-1051 1 -1638 8 -1681 66 -429 377 -800 786 -933 196 -65 89 -61 1834 -61
1466 0 1591 1 1670 17 254 52 455 159 626 334 126 128 219 278 276 444 60 178
58 105 58 1842 0 1558 0 1592 -20 1689 -91 445 -418 790 -859 905 l-93 24
-1662 0 -1661 -1 -85 -23z m2862 -624 c487 -111 752 -371 861 -846 21 -89 21
-117 24 -1086 4 -1100 4 -1114 -59 -1309 -103 -325 -346 -572 -663 -674 -200
-65 -148 -62 -1275 -62 -951 0 -1031 1 -1114 18 -251 51 -436 146 -587 300
-137 140 -226 322 -281 570 l-23 102 0 995 c0 928 1 1002 19 1095 102 549 430
844 1021 919 17 2 469 3 1005 2 966 -2 976 -2 1072 -24z"/>
<path d="M1903 4240 c-287 -23 -466 -88 -605 -218 -104 -98 -146 -164 -191
-299 -70 -210 -72 -245 -72 -1093 0 -834 3 -881 64 -1063 48 -141 86 -203 187
-304 76 -75 107 -99 176 -131 199 -96 347 -112 1063 -119 710 -7 1007 10 1185
68 145 47 204 83 305 184 215 214 255 430 255 1360 0 556 -19 880 -61 1035
-11 41 -39 113 -61 160 -34 70 -56 100 -132 175 -100 100 -172 143 -311 189
-173 56 -216 59 -990 62 -390 1 -756 -2 -812 -6z m1881 -300 c72 -16 122 -53
153 -113 22 -44 26 -65 26 -132 0 -93 -20 -143 -77 -193 -43 -38 -91 -52 -176
-52 -97 0 -138 15 -191 69 -50 52 -69 104 -69 188 0 62 46 162 88 192 65 46
157 61 246 41z m-934 -280 c225 -28 383 -112 563 -299 128 -133 207 -268 246
-424 40 -153 35 -505 -8 -642 -47 -151 -122 -275 -243 -401 -226 -235 -470
-320 -863 -299 -153 8 -244 30 -361 84 -117 55 -193 112 -299 223 -211 220
-276 394 -275 743 1 227 23 331 106 495 137 274 433 486 724 520 99 11 315 11
410 0z"/>
<path d="M2526 3244 c-118 -28 -202 -79 -307 -183 -82 -81 -103 -109 -137
-181 -84 -178 -83 -330 5 -510 54 -110 186 -240 304 -298 83 -41 191 -71 257
-72 65 0 179 33 266 78 134 68 227 164 294 302 92 189 92 322 1 508 -59 120
-180 242 -297 301 -137 69 -258 86 -386 55z"/>
</g>
</svg>
