<?xml version="1.0" standalone="no"?>
<!DOCTYPE svg PUBLIC "-//W3C//DTD SVG 20010904//EN"
 "http://www.w3.org/TR/2001/REC-SVG-20010904/DTD/svg10.dtd">
<svg version="1.0" xmlns="http://www.w3.org/2000/svg"
 width="85.000000pt" height="95.000000pt" viewBox="0 0 85.000000 95.000000"
 preserveAspectRatio="xMidYMid meet">

<g transform="translate(0.000000,95.000000) scale(0.100000,-0.100000)"
fill="#000000" stroke="none">
<path d="M272 925 c-80 -18 -139 -46 -181 -87 -45 -44 -61 -79 -77 -167 -42
-238 18 -427 151 -471 l35 -12 0 -84 c0 -108 11 -109 105 -14 68 68 71 70 120
70 83 0 217 20 260 39 53 23 98 76 126 148 20 50 23 77 23 193 1 208 -37 296
-152 350 -98 46 -285 62 -410 35z m281 -158 c53 -31 96 -96 104 -156 7 -50 -3
-91 -22 -91 -11 0 -15 12 -15 48 0 51 -26 117 -56 144 -32 28 -90 48 -139 48
-32 0 -45 4 -45 14 0 21 18 26 76 23 33 -2 67 -13 97 -30z m-258 -49 c47 -56
53 -83 26 -112 -11 -12 -21 -33 -21 -47 0 -50 91 -139 142 -139 13 0 31 9 41
20 9 11 25 20 36 20 21 0 121 -75 121 -91 0 -46 -66 -97 -112 -86 -35 9 -142
77 -198 125 -78 67 -170 216 -170 274 0 25 53 78 78 78 12 0 36 -19 57 -42z
m233 -5 c46 -35 66 -70 66 -120 1 -36 -3 -48 -14 -48 -9 0 -17 14 -21 38 -3
21 -12 49 -19 62 -15 28 -66 55 -103 55 -28 0 -42 14 -31 31 10 17 92 5 122
-18z m-39 -48 c31 -15 57 -65 47 -90 -9 -25 -25 -17 -40 19 -9 22 -24 37 -45
44 -30 11 -38 22 -24 35 10 11 32 8 62 -8z"/>
</g>
</svg>
