<?xml version="1.0" standalone="no"?>
<!DOCTYPE svg PUBLIC "-//W3C//DTD SVG 20010904//EN"
 "http://www.w3.org/TR/2001/REC-SVG-20010904/DTD/svg10.dtd">
<svg version="1.0" xmlns="http://www.w3.org/2000/svg"
 width="43.000000pt" height="43.000000pt" viewBox="0 0 43.000000 43.000000"
 preserveAspectRatio="xMidYMid meet">

<g transform="translate(0.000000,43.000000) scale(0.100000,-0.100000)"
fill="#000000" stroke="none">
<path d="M54 416 c-44 -19 -54 -58 -54 -201 0 -204 11 -215 213 -215 206 0
217 11 217 215 0 148 -11 187 -60 204 -47 16 -277 14 -316 -3z m91 -168 c11
-23 26 -44 33 -46 15 -5 16 41 2 69 -10 17 -7 19 25 19 34 0 35 -1 35 -41 0
-37 2 -40 16 -28 8 7 22 25 30 41 10 19 22 28 39 28 30 0 31 -2 4 -50 l-22
-39 27 -31 c42 -51 2 -74 -44 -25 -28 30 -50 32 -50 5 0 -54 -84 -22 -128 48
-17 26 -33 57 -37 70 -5 19 -3 22 22 22 23 -1 32 -8 48 -42z"/>
</g>
</svg>
