<?xml version="1.0" standalone="no"?>
<!DOCTYPE svg PUBLIC "-//W3C//DTD SVG 20010904//EN"
 "http://www.w3.org/TR/2001/REC-SVG-20010904/DTD/svg10.dtd">
<svg version="1.0" xmlns="http://www.w3.org/2000/svg"
 width="166.000000pt" height="116.000000pt" viewBox="0 0 166.000000 116.000000"
 preserveAspectRatio="xMidYMid meet">

<g transform="translate(0.000000,116.000000) scale(0.100000,-0.100000)"
fill="#000000" stroke="none">
<path d="M234 1135 c-74 -16 -110 -34 -145 -72 -49 -52 -60 -88 -71 -226 -12
-162 -3 -523 15 -592 36 -133 113 -200 258 -225 43 -7 236 -10 589 -8 486 3
529 5 575 22 65 25 137 97 159 161 45 128 45 702 -1 805 -25 58 -79 105 -145
127 -48 16 -108 18 -613 20 -441 1 -573 -1 -621 -12z m645 -406 c203 -105 219
-117 206 -155 -8 -21 -46 -45 -190 -120 -99 -52 -189 -94 -199 -94 -11 0 -28
7 -38 17 -16 14 -18 35 -18 210 0 180 1 194 20 213 11 11 25 20 32 20 6 0 90
-41 187 -91z"/>
</g>
</svg>
